<svg xmlns="http://www.w3.org/2000/svg" width="57" height="45" viewBox="0 0 57 45" shape-rendering="crispEdges">
  <rect x="0" y="0" width="3" height="3" fill="#710808" />
  <rect x="3" y="0" width="3" height="3" fill="#710808" />
  <rect x="6" y="3" width="3" height="3" fill="#710808" />
  <rect x="9" y="3" width="3" height="3" fill="#710808" />
  <rect x="12" y="0" width="3" height="3" fill="#710808" />
  <rect x="15" y="0" width="3" height="3" fill="#710808" />
  <rect x="18" y="3" width="3" height="3" fill="#710808" />
  <rect x="21" y="3" width="3" height="3" fill="#710808" />
  <rect x="24" y="0" width="3" height="3" fill="#710808" />
  <rect x="27" y="0" width="3" height="3" fill="#710808" />
  <rect x="30" y="3" width="3" height="3" fill="#710808" />
  <rect x="33" y="3" width="3" height="3" fill="#710808" />
  <rect x="36" y="0" width="3" height="3" fill="#710808" />
  <rect x="39" y="0" width="3" height="3" fill="#710808" />
  <rect x="42" y="3" width="3" height="3" fill="#710808" />
  <rect x="45" y="3" width="3" height="3" fill="#710808" />
  <rect x="48" y="0" width="3" height="3" fill="#710808" />
  <rect x="51" y="0" width="3" height="3" fill="#710808" />
  <rect x="54" y="3" width="3" height="3" fill="#710808" />
  <rect x="0" y="42" width="3" height="3" fill="#710808" />
  <rect x="3" y="42" width="3" height="3" fill="#710808" />
  <rect x="6" y="39" width="3" height="3" fill="#710808" />
  <rect x="9" y="39" width="3" height="3" fill="#710808" />
  <rect x="12" y="42" width="3" height="3" fill="#710808" />
  <rect x="15" y="42" width="3" height="3" fill="#710808" />
  <rect x="18" y="39" width="3" height="3" fill="#710808" />
  <rect x="21" y="39" width="3" height="3" fill="#710808" />
  <rect x="24" y="42" width="3" height="3" fill="#710808" />
  <rect x="27" y="42" width="3" height="3" fill="#710808" />
  <rect x="30" y="39" width="3" height="3" fill="#710808" />
  <rect x="33" y="39" width="3" height="3" fill="#710808" />
  <rect x="36" y="42" width="3" height="3" fill="#710808" />
  <rect x="39" y="42" width="3" height="3" fill="#710808" />
  <rect x="42" y="39" width="3" height="3" fill="#710808" />
  <rect x="45" y="39" width="3" height="3" fill="#710808" />
  <rect x="48" y="42" width="3" height="3" fill="#710808" />
  <rect x="51" y="42" width="3" height="3" fill="#710808" />
  <rect x="54" y="39" width="3" height="3" fill="#710808" />
  <rect x="27" y="9" width="3" height="3" fill="#710808" />
  <rect x="24" y="12" width="9" height="3" fill="#710808" />
  <rect x="21" y="15" width="15" height="3" fill="#710808" />
  <rect x="18" y="18" width="21" height="3" fill="#710808" />
  <rect x="15" y="21" width="27" height="3" fill="#710808" />
  <rect x="18" y="24" width="21" height="3" fill="#710808" />
  <rect x="21" y="27" width="15" height="3" fill="#710808" />
  <rect x="24" y="30" width="9" height="3" fill="#710808" />
  <rect x="27" y="33" width="3" height="3" fill="#710808" />
  <rect x="6" y="3" width="3" height="3" fill="#710808" />
  <rect x="3" y="6" width="3" height="3" fill="#710808" />
  <rect x="6" y="6" width="3" height="3" fill="#710808" />
  <rect x="9" y="6" width="3" height="3" fill="#710808" />
  <rect x="6" y="9" width="3" height="3" fill="#710808" />
  <rect x="48" y="3" width="3" height="3" fill="#710808" />
  <rect x="45" y="6" width="3" height="3" fill="#710808" />
  <rect x="48" y="6" width="3" height="3" fill="#710808" />
  <rect x="51" y="6" width="3" height="3" fill="#710808" />
  <rect x="48" y="9" width="3" height="3" fill="#710808" />
  <rect x="6" y="33" width="3" height="3" fill="#710808" />
  <rect x="3" y="36" width="3" height="3" fill="#710808" />
  <rect x="6" y="36" width="3" height="3" fill="#710808" />
  <rect x="9" y="36" width="3" height="3" fill="#710808" />
  <rect x="6" y="39" width="3" height="3" fill="#710808" />
  <rect x="48" y="33" width="3" height="3" fill="#710808" />
  <rect x="45" y="36" width="3" height="3" fill="#710808" />
  <rect x="48" y="36" width="3" height="3" fill="#710808" />
  <rect x="51" y="36" width="3" height="3" fill="#710808" />
  <rect x="48" y="39" width="3" height="3" fill="#710808" />
</svg>
