<svg xmlns="http://www.w3.org/2000/svg" width="46" height="26" viewBox="0 0 46 26">
  <g fill="none" stroke="#B5645F" stroke-width="1.1" stroke-linecap="round" stroke-linejoin="round">
    <!-- paisley / boteh motif -->
    <path d="M8 22 C1 21 -1 13 4 8 C7 5 7 2 4 0.5
             C10 -0.5 15 4 14 10 C13.2 15 17 19 8 22 Z" />
    <circle cx="6.5" cy="6" r="1" fill="#B5645F" stroke="none" />
    <path d="M8 22 C6 17 8 13 11 11" stroke-width="0.8" />

    <!-- tulip / flower motif -->
    <path d="M30 22 C30 17 26.5 15.5 26.5 11 C26.5 7.5 28 5 30 5
             C32 5 33.5 7.5 33.5 11 C33.5 15.5 30 17 30 22 Z" />
    <path d="M30 11 C29 8.5 29 6.5 30 5" stroke-width="0.8" />
    <path d="M27.5 10 C27.5 14 30 15 30 18" stroke-width="0.8" />
    <path d="M32.5 10 C32.5 14 30 15 30 18" stroke-width="0.8" />
    <circle cx="30" cy="4.2" r="1" fill="#B5645F" stroke="none" />

    <!-- connecting scalloped base line -->
    <path d="M-2 23 Q 4 25 8 23 Q 13 21 19 23 Q 24 25 30 23 Q 36 21 41 23 Q 44 24 48 23"
          stroke-width="1" />
  </g>
</svg>
