<svg xmlns="http://www.w3.org/2000/svg" width="48" height="30" viewBox="0 0 48 30">
  <g stroke="#9D5654" fill="none" stroke-width="1.1" stroke-linecap="round">
    <!-- vine wave -->
    <path d="M-2 5 Q 6 1.5 12 5 Q 18 8.5 24 5 Q 30 1.5 36 5 Q 42 8.5 50 5" />
    <!-- stem down to leaf -->
    <path d="M12 5 L12 9" />
    <!-- leaf -->
    <path d="M12 9 C6.5 9 4.5 13.5 8 16.5 C10 18.2 14 18.2 16 16.5 C19.5 13.5 17.5 9 12 9 Z" />
    <path d="M12 9 L12 17.5 M8 12 L15.5 14.2 M16 12 L8.5 14.2" stroke-width="0.6" />
    <path d="M12 17.5 L12 20" />
  </g>
  <!-- grape cluster -->
  <g fill="#9D5654">
    <circle cx="12" cy="21.6" r="1.5" />
    <circle cx="9.2" cy="24.2" r="1.5" />
    <circle cx="14.8" cy="24.2" r="1.5" />
    <circle cx="7" cy="27" r="1.35" />
    <circle cx="12" cy="27.3" r="1.35" />
    <circle cx="17" cy="27" r="1.35" />
  </g>
</svg>
